<?xml version="1.0" encoding="utf-8"?>
<!-- Generator: Adobe Illustrator 25.3.1, SVG Export Plug-In . SVG Version: 6.00 Build 0)  -->
<svg version="1.1" id="Логотип" xmlns="http://www.w3.org/2000/svg" xmlns:xlink="http://www.w3.org/1999/xlink" x="0px"
	 y="0px" viewBox="0 0 2000 2000" style="enable-background:new 0 0 2000 2000;" xml:space="preserve">
<style type="text/css">
	.st0{fill:#58B7B3;}
	.st1{fill:#322B69;}
</style>
<path id="Голова" class="st0" d="M1630.1,953.6C1704.1,881,1750,779.9,1750,668c0,0,0,0,0,0l-508.8,185.2l-85.8,31.2
	l-142.6,51.9c-8.3,3-17.4,3-25.7,0l-142.6-51.9l-85.8-31.2L250,668c0,0,0,0,0,0c0,111.8,45.9,213,119.9,285.6
	c-41.4,40.6-74.6,90.8-95.8,148.9c-75.6,207.6,31.5,437.1,239.1,512.7c121,44,249.5,26,350.6-37.8c29.9,22.8,49.2,58.9,49.2,99.4
	c0,48.3,39.2,87.5,87.5,87.5h0c48.3,0,87.5-39.2,87.5-87.5c0-40.3,19.1-76.2,48.8-99.1c101,63.5,229.2,81.4,350,37.4
	c207.6-75.6,314.6-305.1,239.1-512.7C1704.7,1044.4,1671.5,994.1,1630.1,953.6z"/>
<path id="Клюв__x28_Т_x29_" class="st1" d="M1062.5,1489.3h-125c-20.7,0-37.5,16.8-37.5,37.5l0,0c0,20.7,16.8,37.5,37.5,37.5
	H963v112.5c0,20.7,16.8,37.5,37.5,37.5h0c20.7,0,37.5-16.8,37.5-37.5v-112.5h24.5c20.7,0,37.5-16.8,37.5-37.5l0,0
	C1100,1506.1,1083.2,1489.3,1062.5,1489.3z"/>
<g id="Глаз__x28_С_x29_">
	<circle id="Глаз" class="st1" cx="650" cy="1239.3" r="175"/>
	<path id="Контур_глаза_1_" class="st1" d="M823.8,1419c-45.6,44.1-108.1,71.1-176.8,70.3
		c-137.6-1.6-247.3-113-247-250.5c0.3-137.8,112.1-249.5,250-249.5c64.9,0,123.9,24.7,168.4,65.2c6.9,6.3,15.9,9.8,25.3,9.8h0
		c34.1,0,50.7-42,25.5-65c-56.7-51.8-131.8-83.8-214.4-84.9C474,911.7,326.5,1055.8,325,1236.6c-1.5,180.7,144.6,327.7,325,327.7
		c87.8,0,167.5-34.8,226-91.4c24.3-23.5,7.8-64.6-26-64.6h0C840.2,1408.3,830.8,1412.2,823.8,1419z"/>
</g>
<g id="Глаз__x28_Э_x29_">
	<path id="Контур_глаза" class="st1" d="M1345.3,914.3c-82.6,1.2-157.7,33.1-214.4,84.9c-25.2,23-8.6,65,25.5,65h0
		c9.4,0,18.4-3.6,25.4-9.9c45.1-41.1,105.2-65.8,171.2-65.1c136.7,1.6,247.3,113.8,247,250.4c-0.2,137.9-112.1,249.6-250,249.6
		c-64.9,0-123.9-24.7-168.4-65.2c-6.9-6.3-15.9-9.8-25.3-9.8h0c-34.3,0-50.5,42.2-25.2,65.3c57.7,52.6,134.5,84.7,218.8,84.7
		c180.4,0,326.5-147,325-327.7C1673.5,1055.8,1526,911.7,1345.3,914.3z"/>
	<path id="Закрытый_глаз" class="st1" d="M1212.5,1201.8h275c20.7,0,37.5,16.8,37.5,37.5v0c0,20.7-16.8,37.5-37.5,37.5
		h-275c-20.7,0-37.5-16.8-37.5-37.5v0C1175,1218.6,1191.8,1201.8,1212.5,1201.8z"/>
</g>
<g id="Кисточка_2_">
	<path id="Кисточка_1_" class="st1" d="M1787.5,901.8L1787.5,901.8c-20.7,0-37.5-16.8-37.5-37.5l0-225
		c0-20.7,16.8-37.5,37.5-37.5l0,0c20.7,0,37.5,16.8,37.5,37.5v225C1825,885,1808.2,901.8,1787.5,901.8z"/>
	<path id="Кисточка__x28_Т_x29_" class="st1" d="M1862.5,926.8h-150c-20.7,0-37.5,16.8-37.5,37.5v0
		c0,20.7,16.8,37.5,37.5,37.5h37.5v237.5c0,20.7,16.8,37.5,37.5,37.5l0,0c20.7,0,37.5-16.8,37.5-37.5v-237.5h37.5
		c20.7,0,37.5-16.8,37.5-37.5v0C1900,943.6,1883.2,926.8,1862.5,926.8z"/>
</g>
<path id="Шляпа" class="st1" d="M1900,587.2c0,16.2-10.3,30-24.7,35.2c-0.3,0.1-0.5,0.2-0.8,0.3l-28.8,10.5l-604.6,220
	l-85.8,31.2l-142.6,51.9c-8.3,3-17.4,3-25.7,0l-142.6-51.9l-85.8-31.2l-604.6-220l-28.8-10.5c-0.3-0.1-0.5-0.2-0.8-0.3
	c-14.4-5.2-24.7-19-24.7-35.2c0-16.2,10.3-30,24.7-35.2l0.8-0.3l28.8-10.5l604.6-220.1l85.8-31.2L987.2,238c8.3-3,17.4-3,25.7,0
	l142.6,51.9l85.8,31.2l604.6,220.1l28.8,10.5l0.8,0.3C1889.7,557.2,1900,571,1900,587.2z"/>
</svg>
